<svg class="svg-icon" style="width: 1em; height: 1em;vertical-align: middle;fill: currentColor;overflow: hidden;" viewBox="0 0 1024 1024" version="1.1" xmlns="http://www.w3.org/2000/svg"><path d="M640 298.666667v170.666666h42.666667v85.333334h-128V213.333333h85.333333l-128-170.666666-128 170.666666h85.333333v341.333334h-128v-88.32c30.08-15.573333 51.2-46.08 51.2-82.346667a93.866667 93.866667 0 0 0-187.733333 0c0 36.266667 21.12 66.773333 51.2 82.346667V554.666667c0 47.146667 38.186667 85.333333 85.333333 85.333333h128v130.133333c-30.293333 15.573333-51.2 46.72-51.2 83.2a93.866667 93.866667 0 0 0 187.733334 0c0-36.48-20.906667-67.626667-51.2-83.2V640h128c47.146667 0 85.333333-38.186667 85.333333-85.333333v-85.333334h42.666667v-170.666666h-170.666667z"  /></svg>